<svg width="860" height="540" viewBox="0 0 860 540" fill="none" xmlns="http://www.w3.org/2000/svg">
  <rect width="860" height="540" rx="34" fill="#0D111A"/>
  <rect x="1.5" y="1.5" width="857" height="537" rx="32.5" stroke="white" stroke-opacity="0.14" stroke-width="3"/>
  <circle cx="54" cy="48" r="8" fill="#FF6B6B" fill-opacity="0.9"/>
  <circle cx="84" cy="48" r="8" fill="#FFD166" fill-opacity="0.9"/>
  <circle cx="114" cy="48" r="8" fill="#7CF7C5" fill-opacity="0.9"/>
  <rect x="48" y="102" width="238" height="18" rx="9" fill="#8AB4FF" fill-opacity="0.76"/>
  <rect x="48" y="152" width="344" height="16" rx="8" fill="white" fill-opacity="0.42"/>
  <rect x="88" y="196" width="214" height="16" rx="8" fill="#7CF7C5" fill-opacity="0.7"/>
  <rect x="88" y="240" width="304" height="16" rx="8" fill="white" fill-opacity="0.34"/>
  <rect x="88" y="284" width="178" height="16" rx="8" fill="#8AB4FF" fill-opacity="0.66"/>
  <rect x="48" y="350" width="438" height="18" rx="9" fill="white" fill-opacity="0.46"/>
  <rect x="88" y="396" width="276" height="16" rx="8" fill="#7CF7C5" fill-opacity="0.72"/>
  <rect x="88" y="440" width="354" height="16" rx="8" fill="white" fill-opacity="0.32"/>
  <rect x="602" y="104" width="186" height="314" rx="28" fill="white" fill-opacity="0.06"/>
  <rect x="632" y="138" width="126" height="126" rx="28" fill="url(#logoGlow)"/>
  <rect x="636" y="306" width="118" height="12" rx="6" fill="white" fill-opacity="0.44"/>
  <rect x="636" y="338" width="92" height="10" rx="5" fill="white" fill-opacity="0.22"/>
  <defs>
    <radialGradient id="logoGlow" cx="0" cy="0" r="1" gradientUnits="userSpaceOnUse" gradientTransform="translate(695 201) rotate(90) scale(86)">
      <stop stop-color="#8AB4FF" stop-opacity="0.7"/>
      <stop offset="1" stop-color="#7CF7C5" stop-opacity="0.12"/>
    </radialGradient>
  </defs>
</svg>

