<svg width="920" height="118" viewBox="0 0 920 118" fill="none" xmlns="http://www.w3.org/2000/svg">
  <rect width="920" height="118" rx="30" fill="#10141D" fill-opacity="0.86"/>
  <rect x="1" y="1" width="918" height="116" rx="29" stroke="white" stroke-opacity="0.13" stroke-width="2"/>
  <rect x="38" y="38" width="120" height="42" rx="21" fill="white" fill-opacity="0.1"/>
  <rect x="190" y="38" width="120" height="42" rx="21" fill="white" fill-opacity="0.1"/>
  <rect x="342" y="38" width="120" height="42" rx="21" fill="white" fill-opacity="0.1"/>
  <rect x="494" y="38" width="152" height="42" rx="21" fill="#7CF7C5" fill-opacity="0.18"/>
  <rect x="678" y="38" width="204" height="42" rx="21" fill="#8AB4FF" fill-opacity="0.16"/>
  <rect x="74" y="54" width="48" height="10" rx="5" fill="white" fill-opacity="0.66"/>
  <rect x="226" y="54" width="48" height="10" rx="5" fill="white" fill-opacity="0.66"/>
  <rect x="378" y="54" width="48" height="10" rx="5" fill="white" fill-opacity="0.66"/>
  <rect x="532" y="54" width="76" height="10" rx="5" fill="#7CF7C5" fill-opacity="0.9"/>
  <rect x="718" y="54" width="124" height="10" rx="5" fill="#8AB4FF" fill-opacity="0.9"/>
</svg>
