<svg width="180" height="140" viewBox="0 0 180 140" fill="none" xmlns="http://www.w3.org/2000/svg">
  <path d="M18 34C18 25.2 25.2 18 34 18H74L92 38H146C154.8 38 162 45.2 162 54V106C162 114.8 154.8 122 146 122H34C25.2 122 18 114.8 18 106V34Z" fill="#151A23"/>
  <path d="M18 34C18 25.2 25.2 18 34 18H74L92 38H146C154.8 38 162 45.2 162 54V106C162 114.8 154.8 122 146 122H34C25.2 122 18 114.8 18 106V34Z" stroke="white" stroke-opacity="0.16" stroke-width="3"/>
  <path d="M38 70H142" stroke="#7CF7C5" stroke-opacity="0.72" stroke-width="8" stroke-linecap="round"/>
</svg>

