<svg xmlns="http://www.w3.org/2000/svg" viewBox="0 0 860 540">
  <rect x="1" y="1" width="858" height="538" rx="18" fill="#0B0D10" stroke="#30343B" stroke-width="2"/>
  <path d="M1 45H859" stroke="#292D33"/>
  <circle cx="24" cy="23" r="4" fill="#626871"/>
  <circle cx="39" cy="23" r="4" fill="#454B53"/>
  <circle cx="54" cy="23" r="4" fill="#343941"/>
  <rect x="354" y="14" width="152" height="19" rx="4" fill="#15181D"/>
  <circle cx="369" cy="23.5" r="4" fill="#76E4B8"/>
  <rect x="380" y="20" width="71" height="7" rx="3.5" fill="#777E87"/>
  <rect x="14" y="58" width="158" height="334" rx="6" fill="#101318" stroke="#242930"/>
  <rect x="27" y="74" width="44" height="7" rx="3.5" fill="#646B74"/>
  <g fill="#171B20">
    <rect x="23" y="96" width="140" height="34" rx="4"/>
    <rect x="23" y="134" width="140" height="34" rx="4"/>
    <rect x="23" y="172" width="140" height="34" rx="4"/>
    <rect x="23" y="210" width="140" height="34" rx="4"/>
  </g>
  <rect x="23" y="96" width="140" height="34" rx="4" fill="#17231F" stroke="#315348"/>
  <g fill="none" stroke="#858C95" stroke-width="2">
    <rect x="34" y="106" width="13" height="13" rx="2"/>
    <path d="M35 145h11v11H35zM35 183h11v11H35zM35 221h11v11H35z"/>
  </g>
  <g fill="#858C95">
    <rect x="56" y="109" width="61" height="5" rx="2.5"/>
    <rect x="56" y="147" width="74" height="5" rx="2.5"/>
    <rect x="56" y="185" width="53" height="5" rx="2.5"/>
    <rect x="56" y="223" width="68" height="5" rx="2.5"/>
  </g>
  <rect x="184" y="58" width="474" height="334" rx="6" fill="#080A0D" stroke="#242930"/>
  <path d="M184 86H658" stroke="#20242A"/>
  <rect x="200" y="68" width="58" height="7" rx="3.5" fill="#646B74"/>
  <rect x="225" y="112" width="392" height="220" rx="4" fill="#11151A" stroke="#343A43"/>
  <path d="M226 268L617 121V332H226Z" fill="#111E1A"/>
  <circle cx="421" cy="211" r="66" fill="#151C22" stroke="#2F3740"/>
  <path d="M397 244L462 211L397 178V244Z" fill="#76E4B8"/>
  <rect x="368" y="350" width="106" height="7" rx="3.5" fill="#4F565F"/>
  <rect x="671" y="58" width="175" height="334" rx="6" fill="#101318" stroke="#242930"/>
  <rect x="687" y="74" width="64" height="7" rx="3.5" fill="#646B74"/>
  <g fill="#171B20" stroke="#2B3037">
    <rect x="685" y="100" width="147" height="56" rx="4"/>
    <rect x="685" y="165" width="147" height="56" rx="4"/>
    <rect x="685" y="230" width="147" height="56" rx="4"/>
  </g>
  <g fill="#6F7680">
    <rect x="696" y="111" width="38" height="5" rx="2.5"/>
    <rect x="696" y="176" width="31" height="5" rx="2.5"/>
    <rect x="696" y="241" width="44" height="5" rx="2.5"/>
  </g>
  <g fill="#0C0E12" stroke="#343A42">
    <rect x="696" y="126" width="58" height="19" rx="3"/>
    <rect x="761" y="126" width="58" height="19" rx="3"/>
    <rect x="696" y="191" width="123" height="19" rx="3"/>
    <rect x="696" y="256" width="123" height="19" rx="3"/>
  </g>
  <rect x="14" y="405" width="832" height="121" rx="6" fill="#0F1216" stroke="#242930"/>
  <path d="M181 405V526M181 433H846" stroke="#292E35"/>
  <g fill="#656C75">
    <rect x="26" y="418" width="54" height="6" rx="3"/>
    <rect x="26" y="446" width="72" height="5" rx="2.5"/>
    <rect x="26" y="475" width="58" height="5" rx="2.5"/>
    <rect x="26" y="504" width="83" height="5" rx="2.5"/>
  </g>
  <g fill="#344A55" stroke="#4D6976">
    <rect x="231" y="446" width="282" height="13" rx="3"/>
    <rect x="311" y="475" width="346" height="13" rx="3"/>
    <rect x="401" y="504" width="201" height="13" rx="3"/>
  </g>
  <g fill="#76E4B8">
    <rect x="231" y="446" width="92" height="13" rx="3"/>
    <rect x="311" y="475" width="68" height="13" rx="3"/>
  </g>
  <path d="M389 405V526" stroke="#F1F4F6" stroke-width="2"/>
  <path d="M382 405H396L389 413Z" fill="#F1F4F6"/>
</svg>
