<svg xmlns="http://www.w3.org/2000/svg" viewBox="0 0 210 160">
  <rect x="1" y="1" width="208" height="158" rx="12" fill="#0D1014" stroke="#30363E" stroke-width="2"/>
  <path d="M1 31H209" stroke="#292F36"/>
  <circle cx="17" cy="16" r="3" fill="#626A73"/>
  <circle cx="29" cy="16" r="3" fill="#444B53"/>
  <rect x="17" y="46" width="5" height="5" rx="2.5" fill="#59616A"/>
  <rect x="17" y="67" width="5" height="5" rx="2.5" fill="#59616A"/>
  <rect x="17" y="88" width="5" height="5" rx="2.5" fill="#59616A"/>
  <rect x="17" y="109" width="5" height="5" rx="2.5" fill="#59616A"/>
  <g fill="none" stroke-linecap="round" stroke-width="6">
    <path d="M39 48H81" stroke="#76E4B8"/>
    <path d="M90 48H144" stroke="#8B94A0"/>
    <path d="M39 69H63" stroke="#78A8FF"/>
    <path d="M72 69H167" stroke="#69727C"/>
    <path d="M39 90H112" stroke="#8B94A0"/>
    <path d="M121 90H178" stroke="#52606C"/>
    <path d="M39 111H72" stroke="#78A8FF"/>
    <path d="M81 111H142" stroke="#69727C"/>
  </g>
  <rect x="39" y="129" width="98" height="4" rx="2" fill="#303740"/>
  <rect x="39" y="129" width="66" height="4" rx="2" fill="#76E4B8"/>
</svg>
